<svg xmlns="http://www.w3.org/2000/svg" viewBox="0 0 1000.00003 400.00001">
  <defs>
    <style>
      .cls-1 {
        fill: #002b49;
      }

      .cls-2 {
        fill: #0cf;
      }

      .cls-3 {
        fill: #a3bac8;
      }

      .cls-4 {
        fill: #5a7c91;
      }

      .cls-5 {
        fill: #df0024;
      }
    </style>
  </defs>
  <title>Rexroth-Logo_RGB</title>
  <g id="Ebene_2" data-name="Ebene 2">
    <g id="Rexroth-Logo">
      <g id="rexroth-Logo-2" data-name="rexroth-Logo">
        <g id="A_Bosch_Company" data-name="A Bosch Company">
          <path class="cls-1" d="M11.64534,378.43937H0l29.56351-81.62028h12.7824l29.1107,81.62028H58.789l-6.50949-19.05588H18.15123ZM48.9707,349.78059,35.269,309.61612l-13.809,40.16447Z"/>
          <g id="Bosch">
            <path class="cls-1" d="M122.2688,296.81909H154.911c17.35814,0,26.49141,7.41422,26.49141,21.568,0,8.32553-3.20146,13.24166-11.18967,17.34711,10.615,3.43074,15.40609,9.48823,15.40609,19.5299,0,14.713-10.27465,23.1753-28.19576,23.1753H122.2688Zm34.3679,34.80964c8.66657,0,12.8875-4.22013,12.8875-12.897,0-8.45491-4.56488-12.32368-14.61317-12.32368H134.25075v25.22067Zm1.47873,37.20039c10.03726,0,15.6354-4.88817,15.6354-13.90973,0-9.02229-5.71279-13.70907-16.55777-13.70907H134.25075v27.6188Z"/>
            <path class="cls-1" d="M254.794,348.39521c0,18.15852-12.09366,31.17085-28.99245,31.17085-16.78047,0-28.8778-12.89035-28.8778-30.82616,0-18.23788,12.09733-31.15689,29.22249-31.15689C242.70037,317.583,254.794,330.6167,254.794,348.39521Zm-45.43557.22933c0,13.26368,6.28753,21.35258,16.32846,21.35258,10.38572,0,16.66223-8.0889,16.66223-21.46726,0-13.005-6.27651-21.324-16.20288-21.324C215.52766,327.18591,209.35846,335.05947,209.35846,348.62454Z"/>
            <path class="cls-1" d="M304.44732,333.45215c-4.45308-4.45751-8.67686-6.26623-14.61308-6.26623-6.61018,0-10.26657,2.38345-10.26657,6.73954,0,4.79482,2.73035,6.59619,13.238,8.76359,6.4992,1.38539,10.27107,2.64875,13.36073,4.57215a15.70712,15.70712,0,0,1,7.41788,13.931c0,11.283-9.02229,18.37385-23.51624,18.37385-10.9597,0-18.60395-3.30139-25.35009-10.73694l7.64719-7.17756c4.91978,6.17216,9.36258,8.32556,17.12516,8.32556,8.22126,0,12.68162-2.84207,12.68162-8.0889,0-4.91609-2.63334-6.50949-14.616-9.24425-13.58333-2.97877-19.17788-8.22487-19.17788-17.81379,0-10.61569,8.32923-17.24718,21.8046-17.24718,9.2369,0,15.29145,2.28277,21.23061,8.09627Z"/>
            <path class="cls-1" d="M378.981,365.075c-5.58792,9.819-13.7018,14.49108-24.99878,14.49108-16.8885,0-28.53311-12.54564-28.53311-30.82616,0-18.46716,11.41531-31.1569,28.31042-31.1569,10.734,0,18.38119,4.34948,23.97208,13.83036l-9.592,5.57022c-4.45015-7.51491-7.76626-9.79767-14.04277-9.79767-10.37828,0-16.43577,7.87356-16.43577,21.43862,0,13.70907,5.93188,21.35259,16.66582,21.35259,7.07686,0,11.18526-2.72741,15.409-10.16294Z"/>
            <path class="cls-1" d="M391.64915,292.477h11.979V327.99c3.66375-6.97618,9.71462-10.407,17.93581-10.407,12.553,0,19.63723,8.44023,19.63723,23.4193v37.43707H429.20088V341.555c0-9.58159-3.53807-13.90973-11.405-13.90973-8.67686,0-14.1677,5.80689-14.1677,15.04379v35.75033h-11.979Z"/>
          </g>
          <g id="Company">
            <path class="cls-1" d="M561.35186,355.49343c-3.43077,8.89291-6.62487,13.565-11.98269,17.69178-5.59079,4.22084-12.5633,6.38087-20.89987,6.38087-22.36465,0-37.21071-16.54381-37.21071-41.77918,0-24.998,15.19443-42.23118,37.11-42.23118,9.58536,0,17.34784,2.85677,23.05329,8.32556,3.89378,3.77546,6.0472,7.29956,9.01127,14.96515l-10.7193,4.10545c-4.22746-12.44571-10.52521-17.57718-21.24457-17.57718-15.39214,0-24.75472,12.20832-24.75472,32.29755s9.36258,32.08957,24.984,32.08957c11.197,0,17.81454-5.59082,21.812-18.49587Z"/>
            <path class="cls-1" d="M629.48633,348.39522c0,18.15853-12.09734,31.17086-28.98143,31.17086-16.78046,0-28.8778-12.89035-28.8778-30.82616,0-18.23788,12.09734-31.1569,29.20786-31.1569C617.389,317.583,629.48633,330.61672,629.48633,348.39522Zm-45.42455.22933c0,13.26369,6.29047,21.35259,16.32112,21.35259,10.3893,0,16.66875-8.0889,16.66875-21.46726,0-13.005-6.27945-21.324-16.21669-21.324C590.2376,327.18593,584.06178,335.05949,584.06178,348.62455Z"/>
            <path class="cls-1" d="M657.58274,327.75331c3.63876-6.7395,9.13327-10.17028,16.55493-10.17028,7.86979,0,13.11589,3.43078,16.543,10.737,4.80219-7.30618,10.626-10.737,18.48555-10.737,11.993,0,18.96916,8.67759,18.96916,23.4193V378.4394H716.13871v-36.999c0-9.46694-3.18676-13.79508-10.15926-13.79508-7.99189,0-13.12407,5.93624-13.12407,14.95043V378.4394h-11.9893v-36.999c0-9.35227-3.30876-13.79508-10.27466-13.79508-7.87649,0-13.00868,5.93624-13.00868,14.95043V378.4394h-11.9893V318.73176h11.9893Z"/>
            <path class="cls-1" d="M747.54387,318.73176h11.968V328.32c4.56479-7.07616,11.078-10.737,19.29988-10.737,15.18341,0,25.228,12.21569,25.228,30.8122,0,18.96918-9.93724,31.17086-25.228,31.17086-8.45858,0-15.06508-3.64611-19.29988-10.50764v30.14488h-11.968Zm11.63064,29.8928c0,13.59368,6.05014,21.35258,16.65479,21.35258,10.626,0,16.01244-7.06949,16.01244-21.12257,0-13.67969-5.84573-21.66864-15.7823-21.66864C765.45469,327.18593,759.17451,335.17488,759.17451,348.62456Z"/>
            <path class="cls-1" d="M870.53823,378.66871a41.76709,41.76709,0,0,1-4.23848.34469c-6.95487,0-11.064-2.7487-13.11672-8.80621-5.01679,6.5242-10.73326,9.3589-18.25478,9.3589-11.19335,0-18.73324-6.84022-18.73324-16.8885,0-8.6629,5.24684-14.72774,15.4061-17.68444,5.71721-1.61471,10.626-2.18945,20.79258-2.39744v-3.10077c0-8.5409-3.43738-12.309-11.19261-12.309-6.17288,0-11.078,2.05274-17.01418,7.05555l-6.16112-7.75156c7.1952-6.26545,14.26472-8.9069,23.96471-8.9069,14.49469,0,22.37853,7.65089,22.37853,21.6973v25.106c0,3.78208,1.586,5.5908,4.79117,5.5908a7.49709,7.49709,0,0,0,1.378-.10069ZM852.39369,350.692q-24.325.183-24.31668,11.297c0,5.26077,3.5241,8.33288,9.69331,8.33288,8.55192,0,14.62337-5.00283,14.62337-12.08631Z"/>
            <path class="cls-1" d="M885.29889,318.73177h11.98269V327.99c3.67476-6.97618,9.71461-10.407,17.92846-10.407,12.55668,0,19.6409,8.44023,19.6409,23.4193v37.43708h-11.99V341.555c0-9.58159-3.53071-13.90974-11.42926-13.90974-8.64894,0-14.15006,5.8069-14.15006,15.04379v35.75034H885.29889Z"/>
            <path class="cls-1" d="M975.69742,385.96093C972.2739,395.44256,966.57139,400,958.12016,400a20.33339,20.33339,0,0,1-12.09734-3.63875l3.87247-8.34026a12.54122,12.54122,0,0,0,7.42829,2.40406c4.34567,0,7.08778-2.28939,8.55181-7.20551l1.73019-5.46953-22.6014-59.01825h12.772l15.64643,43.03448L988.032,318.73177H1000Z"/>
          </g>
        </g>
        <g id="rexroth">
          <g id="r">
            <polygon class="cls-2" points="47.061 231.625 47.061 188.329 23.645 175.268 0 178.02 0 231.625 47.061 231.625"/>
            <path class="cls-1" d="M47.06144,150.70813c0-24.58937,13.22773-39.96311,33.8373-39.96311,7.694,0,12.61,1.522,19.3818,5.51215l11.6891-42.43164C104.58781,69.21771,97.51056,67.366,88.59279,67.366c-18.14731,0-31.07091,9.53143-41.53135,30.74748V70.7532H0V178.02038c8.46157,2.1155,24.62884,5.93382,47.06144,10.30882Z"/>
          </g>
          <g id="e">
            <path class="cls-2" d="M193.11331,234.99858c24.95541,0,44.86519-7.75146,59.44539-22.70892l-63.085-8.515-65.70013-2.8718C137.66117,221.573,161.39869,234.99858,193.11331,234.99858Z"/>
            <path class="cls-1" d="M252.5587,212.28966a78.60294,78.60294,0,0,0,10.68383-13.59422l-36.597-18.14372c-8.61274,13.85215-17.54173,19.07721-32.91457,19.07721-35.95908,0-36.41349-35.25436-36.61535-36.60458H266.32159V150.40668c0-52.29323-28.30047-83.67231-75.36147-83.67231-47.68227,0-81.21095,35.38356-81.21095,85.82595,0,18.12891,4.91195,34.78021,14.02441,48.34258C160.9214,205.90367,204.53685,210.24144,252.5587,212.28966Zm-61.90361-110.789c18.75738,0,27.37774,9.84768,29.83237,32.90111H158.04511C162.35506,111.64981,172.19512,101.50068,190.65509,101.50068Z"/>
          </g>
          <g id="x">
            <polygon class="cls-3" points="376.645 231.625 431.706 231.625 414.757 206.472 386.877 201.948 364.086 211.533 376.645 231.625"/>
            <polygon class="cls-4" points="311.124 231.625 322.852 213.382 299.767 207.871 275.164 213.074 262.519 231.625 311.124 231.625"/>
            <path class="cls-1" d="M322.85211,213.3815,344.344,179.94883l19.742,31.58408c16.872-1.20579,33.77316-2.93148,50.67117-5.06133l-40.8818-60.67226L426.17268,70.7532h-48.6086L348.96261,116.573,320.35441,70.7532H266.209L318.50626,149.488l-43.34181,63.58624q17.33784.45418,35.30729.47818C314.592,213.55241,318.72338,213.45507,322.85211,213.3815Z"/>
          </g>
          <g id="r-2" data-name="r">
            <polygon class="cls-3" points="494.134 231.625 494.134 193.813 468.181 190.805 447.09 201.948 447.09 231.625 494.134 231.625"/>
            <path class="cls-1" d="M494.13392,150.70813c0-24.58937,13.23491-39.96311,33.83371-39.96311,7.67924,0,12.60286,1.522,19.37821,5.51215l11.68507-42.43164c-7.39261-4.60782-14.4546-6.45956-23.384-6.45956-18.14372,0-31.06283,9.53143-41.513,30.74748V70.7532h-47.0435V201.94765c15.72139-2.43445,31.40913-5.18245,47.0435-8.135Z"/>
          </g>
          <g id="o">
            <path class="cls-4" d="M720.33046,150.4c0-2.2254-.09465-4.49163-.27184-6.78073L696.466,140.883,672.34808,154.3044c-.23505,10.787-3.14634,41.50981-31.05565,43.85543l-3.378,18.381,7.313,18.12582C689.60855,231.31709,720.33046,197.61526,720.33046,150.4Z"/>
            <path class="cls-2" d="M637.91059,198.38771c-21.03752,0-29.085-15.22929-32.18832-28.53956H581.04471L559.73428,180.3059c13.64715,46.09206,59.8859,54.69268,78.17631,54.69268,2.486,0,4.90881-.15027,7.31679-.332l-3.935-36.5068C640.18,198.25314,639.10381,198.38771,637.91059,198.38771Z"/>
            <path class="cls-1" d="M603.75749,151.03155c0-31.38625,12.00041-47.68586,35.07179-47.68586,21.53184,0,33.53226,16.902,33.53226,47.36244,0,.4248.02692,1.74856-.01346,3.59627q24.21392-5.59222,47.71054-10.68518c-2.73724-35.39836-26.90315-76.88485-80.91668-76.88485-49.22225,0-83.37176,35.08256-83.37176,85.21588a98.72561,98.72561,0,0,0,3.9641,28.35565q23.17567-5.11651,45.988-10.45775A82.8679,82.8679,0,0,1,603.75749,151.03155Z"/>
          </g>
          <g id="t">
            <path class="cls-4" d="M797.76661,234.99858c15.37419,0,27.37415-4.00492,38.45588-12.60331L824.825,191.01575c-5.8423,3.38812-10.75157,4.92361-16.29243,4.92361-9.23043,0-13.53635-5.54086-13.53635-17.52647V129.436l-23.93107-3.66069L747.92756,137.8581v46.3971C747.92756,216.55252,766.08564,234.99858,797.76661,234.99858Z"/>
            <path class="cls-1" d="M794.99618,107.34344h33.83326V70.7532H794.99618V22.14909L747.92756,38.44152V70.7532H725.79282v36.59024h22.13474V137.8581c16.021-3.18,31.72987-6.02892,47.06862-8.42209Z"/>
          </g>
          <g id="h">
            <path class="cls-5" d="M952.94529,133.7989v97.82636H1000V134.97642l-23.74761-13.4583-23.74761,5.0878A60.68468,60.68468,0,0,1,952.94529,133.7989Z"/>
            <path class="cls-2" d="M899.40994,231.62526V136.88513a46.31931,46.31931,0,0,1,2.21733-14.98258l-25.50072-6.5638-23.77043,7.38291v108.9036Z"/>
            <path class="cls-1" d="M901.62727,121.90255c6.185-18.20517,23.502-18.54968,27.31763-18.54968,1.25558,0,20.52927-2.61164,23.55988,23.25305,16.12287,2.24828,32.00306,5.11022,47.49522,8.3705,0-39.18258-11.69538-68.242-50.74339-68.242-22.76634,0-39.0803,9.55969-49.84667,29.22545V0H852.35612V122.72166c10.86192-.76617,21.49686-1.20354,31.84516-1.20354C890.01173,121.51812,895.82175,121.6684,901.62727,121.90255Z"/>
          </g>
        </g>
      </g>
    </g>
  </g>
</svg>
